<svg xmlns="http://www.w3.org/2000/svg" viewBox="0 0 1280 720" width="1280" height="720">
  <defs>
    <linearGradient id="bgGrad" x1="0%" y1="0%" x2="100%" y2="100%">
      <stop offset="0%" stop-color="#1E293B" />
      <stop offset="100%" stop-color="#0F172A" />
    </linearGradient>
    <radialGradient id="glowCenter" cx="50%" cy="40%" r="55%">
      <stop offset="0%" stop-color="#2563EB" stop-opacity="0.15" />
      <stop offset="100%" stop-color="#2563EB" stop-opacity="0" />
    </radialGradient>
    <linearGradient id="accentLine" x1="0%" y1="0%" x2="100%" y2="0%">
      <stop offset="0%" stop-color="#2563EB" />
      <stop offset="50%" stop-color="#7C3AED" />
      <stop offset="100%" stop-color="#06B6D4" />
    </linearGradient>
  </defs>
  <rect width="1280" height="720" fill="url(#bgGrad)" />
  <rect width="1280" height="720" fill="url(#glowCenter)" />

  
  <path fill="none" stroke="#2563EB" stroke-opacity="0.1" stroke-width="1" d="M66,50 H1214 A16,16 0 0 1 1230,66 V654 A16,16 0 0 1 1214,670 H66 A16,16 0 0 1 50,654 V66 A16,16 0 0 1 66,50 Z" />

  
  <g transform="translate(590.0, 100.0) scale(2.5)" fill="none" stroke="#7C3AED" stroke-width="2">
    <path d="M15.5 13a3.5 3.5 0 0 0 -3.5 3.5v1a3.5 3.5 0 0 0 7 0v-1.8" />
    <path d="M8.5 13a3.5 3.5 0 0 1 3.5 3.5v1a3.5 3.5 0 0 1 -7 0v-1.8" />
    <path d="M17.5 16a3.5 3.5 0 0 0 0 -7h-.5" />
    <path d="M19 9.3v-2.8a3.5 3.5 0 0 0 -7 0" />
    <path d="M6.5 16a3.5 3.5 0 0 1 0 -7h.5" />
    <path d="M5 9.3v-2.8a3.5 3.5 0 0 1 7 0v10" />
  </g>

  
  <path fill="url(#accentLine)" d="M491.50,195 H788.50 A1.50,1.50 0 0 1 790,196.50 V196.50 A1.50,1.50 0 0 1 788.50,198 H491.50 A1.50,1.50 0 0 1 490,196.50 V196.50 A1.50,1.50 0 0 1 491.50,195 Z" />

  <text x="640" y="250" text-anchor="middle" font-family="Microsoft YaHei, PingFang SC, Arial, sans-serif" font-size="32" font-weight="bold" fill="#FFFFFF">核心原则</text>

  
  <path fill="#1E293B" stroke="#2563EB" stroke-opacity="0.3" stroke-width="1" d="M150,290 H590 A10,10 0 0 1 600,300 V350 A10,10 0 0 1 590,360 H150 A10,10 0 0 1 140,350 V300 A10,10 0 0 1 150,290 Z" />
  <circle cx="175" cy="325" r="16" fill="#2563EB" fill-opacity="0.2" />
  <text x="175" y="331" text-anchor="middle" font-family="Microsoft YaHei, PingFang SC, Arial, sans-serif" font-size="16" font-weight="bold" fill="#2563EB">1</text>
  <text x="205" y="320" font-family="Microsoft YaHei, PingFang SC, Arial, sans-serif" font-size="15" font-weight="bold" fill="#FFFFFF">禁止直接读取整本电子书</text>
  <text x="205" y="342" font-family="Microsoft YaHei, PingFang SC, Arial, sans-serif" font-size="13" fill="#94A3B8">分块是硬性要求，避免上下文溢出</text>

  <path fill="#1E293B" stroke="#7C3AED" stroke-opacity="0.3" stroke-width="1" d="M650,290 H1130 A10,10 0 0 1 1140,300 V350 A10,10 0 0 1 1130,360 H650 A10,10 0 0 1 640,350 V300 A10,10 0 0 1 650,290 Z" />
  <circle cx="675" cy="325" r="16" fill="#7C3AED" fill-opacity="0.2" />
  <text x="675" y="331" text-anchor="middle" font-family="Microsoft YaHei, PingFang SC, Arial, sans-serif" font-size="16" font-weight="bold" fill="#7C3AED">2</text>
  <text x="705" y="320" font-family="Microsoft YaHei, PingFang SC, Arial, sans-serif" font-size="15" font-weight="bold" fill="#FFFFFF">串行处理，质量优先</text>
  <text x="705" y="342" font-family="Microsoft YaHei, PingFang SC, Arial, sans-serif" font-size="13" fill="#94A3B8">"慢就是快"，不急不躁，一个接一个</text>

  <path fill="#1E293B" stroke="#06B6D4" stroke-opacity="0.3" stroke-width="1" d="M150,380 H590 A10,10 0 0 1 600,390 V440 A10,10 0 0 1 590,450 H150 A10,10 0 0 1 140,440 V390 A10,10 0 0 1 150,380 Z" />
  <circle cx="175" cy="415" r="16" fill="#06B6D4" fill-opacity="0.2" />
  <text x="175" y="421" text-anchor="middle" font-family="Microsoft YaHei, PingFang SC, Arial, sans-serif" font-size="16" font-weight="bold" fill="#06B6D4">3</text>
  <text x="205" y="410" font-family="Microsoft YaHei, PingFang SC, Arial, sans-serif" font-size="15" font-weight="bold" fill="#FFFFFF">知识型条目优先</text>
  <text x="205" y="432" font-family="Microsoft YaHei, PingFang SC, Arial, sans-serif" font-size="13" fill="#94A3B8">读者需要查资料的才提取</text>

  <path fill="#1E293B" stroke="#10B981" stroke-opacity="0.3" stroke-width="1" d="M650,380 H1130 A10,10 0 0 1 1140,390 V440 A10,10 0 0 1 1130,450 H650 A10,10 0 0 1 640,440 V390 A10,10 0 0 1 650,380 Z" />
  <circle cx="675" cy="415" r="16" fill="#10B981" fill-opacity="0.2" />
  <text x="675" y="421" text-anchor="middle" font-family="Microsoft YaHei, PingFang SC, Arial, sans-serif" font-size="16" font-weight="bold" fill="#10B981">4</text>
  <text x="705" y="410" font-family="Microsoft YaHei, PingFang SC, Arial, sans-serif" font-size="15" font-weight="bold" fill="#FFFFFF">互联网辅助，不做纯虚构</text>
  <text x="705" y="432" font-family="Microsoft YaHei, PingFang SC, Arial, sans-serif" font-size="13" fill="#94A3B8">每个知识点结合书中原文和网络资料</text>

  <line x1="640" y1="480" x2="640" y2="530" stroke="#334155" stroke-width="1" />

  
  
  <g transform="translate(580.0, 540.0)" fill="none" stroke="#06B6D4" stroke-width="2">
    <path d="M4 6a8 3 0 1 0 16 0a8 3 0 1 0 -16 0" />
    <path d="M4 6v6a8 3 0 0 0 16 0v-6" />
    <path d="M4 12v6a8 3 0 0 0 16 0v-6" />
  </g>
  <text x="615" y="558" font-family="Microsoft YaHei, PingFang SC, Arial, sans-serif" font-size="16" fill="#94A3B8">最终产物：<tspan fill="#22D3EE" font-weight="bold">SQLite 结构化知识库</tspan></text>

  <text x="640" y="590" text-anchor="middle" font-family="Microsoft YaHei, PingFang SC, Arial, sans-serif" font-size="13" fill="#64748B">可查询、可复用、可分享的知识资产</text>

  
  <circle cx="1100" cy="120" r="3" fill="#2563EB" fill-opacity="0.3" />
  <circle cx="1130" cy="100" r="2" fill="#7C3AED" fill-opacity="0.4" />
  <circle cx="1160" cy="130" r="4" fill="#06B6D4" fill-opacity="0.25" />
  <circle cx="100" cy="620" r="3" fill="#7C3AED" fill-opacity="0.3" />
  <circle cx="130" cy="640" r="2" fill="#2563EB" fill-opacity="0.4" />

  <text x="1220" y="690" text-anchor="end" font-family="Microsoft YaHei, PingFang SC, Arial, sans-serif" font-size="11" fill="#475569">13</text>
</svg>